<svg width="523" height="593" viewBox="0 0 523 593" fill="none" xmlns="http://www.w3.org/2000/svg">
<path d="M508.358 0H14C7.37258 0 2 5.37258 2 12V506.358C2 512.985 7.37258 518.358 14 518.358H508.358C514.985 518.358 520.358 512.985 520.358 506.358V12C520.358 5.37258 514.985 0 508.358 0Z" stroke="black" stroke-width="4" stroke-miterlimit="10"/>
<path d="M173.411 308.002C175.65 308.147 186.132 308.871 201.459 309.953C207.272 300.421 214.369 283.408 212.778 258.789C212.488 254.712 221.013 278.444 215.703 310.953C245.318 313.017 285.61 315.81 320.818 317.912C322.127 304.183 323.964 291.524 323.964 291.524C324.719 301.497 326.43 310.538 328.475 318.402C333.288 318.73 338.013 318.956 342.537 319.214C342.48 297.81 347.822 260.764 347.822 260.764C349.829 286.793 357.152 307.845 362.557 320.296C384.924 321.397 399.659 321.712 398.759 320.611C366.691 280.262 392.493 259.047 384.433 224.436C374.756 182.962 339.75 174.839 342.203 144.136C344.135 119.152 349.326 73.8894 318.163 62.7405C318.163 62.7405 293.739 33.4025 252.648 47.0617C201.817 63.9108 218.063 141.984 213.935 157.524C208.065 179.728 197.029 187.139 187.888 212.344C178.57 237.85 189.574 255.568 190.109 273.178C190.581 290.788 167.798 307.694 173.411 308.002Z" fill="black"/>
<path d="M400.017 315.124C395.821 307.99 392.134 300.503 390.158 292.72C387.95 284.975 389.416 277.211 391.328 269.227C393.228 261.28 395.437 253.164 396.576 244.689C397.614 236.246 397.714 227.318 395.286 218.812C393.008 210.293 388.516 202.447 382.828 195.998C377.21 189.448 370.667 184.088 364.362 178.803C358.121 173.461 351.892 168.176 347.337 161.532C342.669 154.983 340.014 147.049 339.391 138.756C338.68 147.024 340.492 155.7 344.77 163.137C348.985 170.624 355.057 176.764 361.078 182.465C367.099 188.203 373.171 193.683 378.179 199.874C383.149 206.058 387.037 212.967 388.944 220.51C390.875 228.029 391.159 235.975 390.221 243.934C389.397 251.918 387.534 259.902 386.075 268.157C385.383 272.291 384.741 276.506 384.684 280.866C384.603 285.233 385.502 289.706 386.931 293.708C389.976 301.723 394.556 308.852 400.017 315.124Z" fill="black"/>
<path d="M223.089 74.4806C218.767 83.786 216.854 94.0036 214.929 104.026C213.192 114.118 211.953 124.273 210.827 134.39L209.046 149.49C208.442 154.536 207.586 159.261 206.102 163.866C203.195 173.121 197.576 181.055 191.272 189.096C188.208 193.179 185.1 197.439 182.501 202.088C179.897 206.725 177.758 211.67 176.254 216.779C174.895 221.957 173.913 227.047 173.347 232.288C172.756 237.517 172.793 242.896 173.486 248.137C174.159 253.397 175.404 258.392 176.411 263.287C177.437 268.17 178.009 273.153 178.078 278.073C178.38 287.844 172.787 297.325 164.614 303.34C173.592 298.552 180.45 288.995 181.243 278.205C181.627 272.958 181.325 267.742 180.645 262.589C179.991 257.442 178.934 252.497 178.601 247.608C177.82 237.919 179.507 227.928 182.256 218.585C183.785 213.973 185.679 209.519 188.12 205.31C190.53 201.082 193.48 197.124 196.563 193.097C199.596 189.046 202.761 184.88 205.498 180.325C208.228 175.776 210.569 170.875 212.091 165.729C213.589 160.588 214.369 155.228 214.815 150.144C215.338 145.023 215.659 139.927 215.979 134.843C216.659 124.682 217.194 114.54 218.144 104.448C218.987 94.3434 220.201 84.2641 223.089 74.4806Z" fill="black"/>
<path d="M224.021 241.455C161.054 312.299 84.8049 458.392 101.887 486.314C120.919 517.414 211.764 416.533 208.638 411.966C205.982 408.084 235.516 320.692 256.964 256.788C278.387 192.94 239.592 223.933 224.021 241.455Z" fill="#D3766A"/>
<path d="M224.021 241.455C161.054 312.299 84.8049 458.392 101.887 486.314C120.919 517.414 211.764 416.533 208.638 411.966C205.982 408.084 235.516 320.692 256.964 256.788C278.387 192.94 239.592 223.933 224.021 241.455Z" fill="black" stroke="white" stroke-width="2" stroke-miterlimit="10"/>
<path d="M232.495 330.099C226.355 348.741 220.717 366.225 216.439 380.199C206.706 380.633 178.242 379.06 148.665 350.641C157.555 334.874 167.181 319.038 177.103 303.913C184.54 311.746 202.585 327.016 232.495 330.099Z" fill="black" stroke="white" stroke-width="1.25833" stroke-miterlimit="10"/>
<path d="M254.774 221.633C267.316 212.533 282.211 212.099 295.532 215.993C308.459 219.771 319.756 227.588 325.764 235.272L326.328 236.015C343.437 259.203 356.209 291.739 367.107 337.596C377.95 383.22 386.917 441.942 396.483 517.616H164.425L180.073 411.608L180.124 411.266L179.951 410.965V410.964C179.951 410.963 179.949 410.962 179.948 410.959C179.946 410.955 179.941 410.947 179.936 410.937C179.924 410.917 179.907 410.886 179.884 410.845C179.838 410.763 179.769 410.639 179.68 410.476C179.501 410.15 179.239 409.665 178.91 409.036C178.252 407.776 177.327 405.938 176.261 403.631C174.128 399.017 171.438 392.537 169.205 385.077C164.726 370.109 162.151 351.403 169.346 335.86L169.347 335.859C173.017 327.906 187.55 304.295 204.631 280.142C213.162 268.079 222.311 255.906 231.032 245.512C239.766 235.103 248.024 226.535 254.774 221.633Z" fill="white" stroke="black" stroke-width="2"/>
<path d="M209.398 270.233C204.194 277.374 199.142 284.616 194.178 291.927C195.531 289.083 196.896 286.245 198.23 283.395C198.324 283.188 198.022 283.018 197.922 283.225C196.072 286.799 194.373 290.423 192.718 294.066C186.081 303.893 179.638 313.853 173.422 323.945C170.786 328.23 168.363 332.59 166.583 337.308C164.859 341.876 163.789 346.683 163.223 351.521C162.657 356.372 162.613 361.248 162.99 366.112C163.374 371.126 163.984 376.09 165.104 380.991C166.375 386.522 168.105 392.027 170.345 397.249C171.446 399.81 172.623 402.358 173.887 404.849C175.045 407.121 177.398 411.758 177.367 411.934C176.895 414.501 176.41 416.3 176.083 418.458C175.75 420.654 175.423 422.856 175.089 425.052C174.429 429.45 168.716 472.246 168.074 476.65C166.797 485.389 165.696 494.135 164.607 502.899C163.978 507.926 163.651 512.997 162.946 518.018C162.915 518.219 163.223 518.301 163.261 518.093C163.984 513.721 165.067 509.411 165.859 505.057C166.652 500.697 167.464 496.33 168.282 491.97C169.936 483.162 176.297 435.874 177.675 427.015C178.059 424.568 178.436 422.114 178.82 419.666C179.198 417.231 179.852 413.96 179.758 411.493C179.758 411.493 171.912 395.368 168.86 384.068C167.583 379.324 166.275 374.385 165.74 369.497C165.218 364.684 165.167 359.839 165.564 355.019C165.96 350.2 166.866 345.412 168.344 340.807C169.867 336.05 172.057 331.627 174.504 327.28C179.625 318.175 185.074 309.241 190.592 300.37C196.852 290.316 203.188 280.3 209.662 270.384C209.775 270.214 209.511 270.082 209.398 270.233Z" fill="black"/>
<path d="M101.886 486.314C117.961 506.938 158.907 508.895 261.531 523.511C275.731 525.53 316.967 429.148 301.911 426.21C282.948 422.511 208.561 412.255 203.025 412.186C156.347 411.657 90.9826 472.322 101.886 486.314Z" fill="black"/>
<path d="M281.349 422.63C281.349 422.63 324.724 426.896 346.821 436.189C376.41 448.634 396.827 471.56 404.805 481.69C421.459 502.824 447.11 565.438 430.361 575.971C415.205 585.509 392.215 520.183 392.215 520.183C392.215 520.183 426.643 582.917 406.283 591.046C385.923 599.174 363.55 521.818 363.55 521.818C363.55 521.818 397.481 587.069 375.152 592.128C358.284 595.953 334.074 527.034 334.074 527.034C334.074 527.034 362.845 583.326 345.669 588C326.687 593.172 300.35 530.96 300.35 530.96C254.679 535.503 231.073 518.981 215.683 505.233C211.965 501.905 281.349 422.63 281.349 422.63Z" fill="white" stroke="black" stroke-width="2.5" stroke-miterlimit="10"/>
<path d="M381.709 497.721C386.019 504.944 390.435 512.223 394.085 519.811C397.74 527.393 401.131 535.106 404.063 542.996C411.255 562.343 412.733 575.581 412.551 574.775C408.285 555.674 395.626 528.33 391.971 520.742C388.321 513.18 385.056 505.428 381.413 497.853C381.325 497.658 381.608 497.551 381.709 497.721Z" fill="black"/>
<path d="M354.088 510.418C359.19 519.88 364.607 529.085 369.295 538.774C373.957 548.419 377.543 557.976 381.532 567.911C381.84 568.679 381.324 568.591 380.985 567.836C376.599 558.065 371.792 549.369 367.3 539.649C362.821 529.966 358.681 520.031 353.849 510.518C353.779 510.374 354.012 510.273 354.088 510.418Z" fill="black"/>
<path d="M328.431 517.055C336.975 531.117 342.915 546.733 348.369 562.198C348.64 562.966 347.992 562.783 347.671 562.016C341.323 546.884 336.453 534.968 327.94 517.357C327.808 517.074 328.249 516.753 328.431 517.055Z" fill="black"/>
<path d="M173.882 418.995C185.738 414.71 196.188 412.455 202.8 413.032C216.474 414.223 244.274 417.058 268.664 419.596C280.857 420.865 292.196 422.059 300.485 422.936C304.63 423.374 308.014 423.734 310.36 423.984C311.042 424.056 311.637 424.119 312.137 424.172L229.199 521.765C228.996 521.75 228.732 521.73 228.411 521.705C227.566 521.639 226.322 521.539 224.734 521.4C221.559 521.121 217.007 520.689 211.503 520.076C200.492 518.851 185.677 516.9 170.454 514.003C155.223 511.104 139.622 507.265 127.02 502.271C120.718 499.774 115.198 497.001 110.858 493.934C106.512 490.862 103.413 487.54 101.853 483.97C98.76 476.893 101.467 468.834 108.188 460.533C114.884 452.265 125.371 444.019 137.188 436.757C148.995 429.502 162.068 423.266 173.882 418.995Z" fill="black" stroke="white" stroke-width="2"/>
<path d="M158.429 425.203C165.061 420.673 183.904 409.908 202.886 412.035C203.1 412.06 203.106 412.362 202.893 412.368C187.327 412.846 165.382 421.611 158.599 425.474C158.417 425.574 158.266 425.316 158.429 425.203Z" fill="black"/>
<path d="M211.764 505.617C244.971 470.447 274.535 428.443 280.211 421.491C280.481 421.164 279.915 420.768 279.663 421.114C274.454 428.223 235.458 472.561 211.166 505.202C210.883 505.579 211.449 505.957 211.764 505.617Z" fill="black"/>
<path d="M344.009 257.625C411.871 343.978 437.471 499.105 399.803 511.198C365.388 522.246 223.838 486.824 181.671 472.504C169.289 468.295 207.536 372.007 220.786 376.493C236.799 381.91 324.341 402.654 326.04 402.692C329.676 402.773 310.222 307.266 301.873 263.992C290.246 203.692 318.527 225.191 344.009 257.625Z" fill="white" stroke="black" stroke-width="1.25833" stroke-miterlimit="10"/>
<path d="M107.631 340.31C100.464 348.439 106.265 358.046 106.265 358.046C106.265 358.046 97.9037 360.28 93.6443 367.421C88.7682 375.6 99.4515 386.831 99.4515 386.831C99.4515 386.831 91.4548 390.845 87.7175 398.835C83.8356 407.134 92.9962 420 92.9962 420C92.9962 420 87.6043 427.827 89.3282 437.057C92.2727 452.836 115.093 461.789 129.545 467.628C143.99 473.467 190.442 476.499 199.237 477.972L237.516 385.566C237.516 385.566 180.18 340.945 162.217 336.497C147.079 332.747 115.671 331.187 107.631 340.31Z" fill="white" stroke="black" stroke-width="2.5" stroke-miterlimit="10"/>
<path d="M107.517 356.826C124.561 356.951 140.643 362.117 156.982 366.357C157.347 366.452 157.19 367.018 156.831 366.924C140.63 362.519 123.756 361.387 107.416 357.631C106.957 357.53 107.058 356.826 107.517 356.826Z" fill="black"/>
<path d="M100.244 385.742C104.101 385.887 107.895 387.302 111.544 388.447C115.477 389.681 119.377 390.983 123.266 392.342C131.048 395.066 138.768 397.967 146.4 401.094C146.74 401.232 146.608 401.786 146.249 401.66C138.492 398.961 130.69 396.375 122.819 394.003C118.88 392.814 114.936 391.662 110.978 390.536C107.297 389.486 103.334 388.687 99.9488 386.837C99.458 386.56 99.6656 385.723 100.244 385.742Z" fill="black"/>
<path d="M93.3297 420.107C96.6831 420.101 100.269 421.925 103.371 423.083C106.888 424.398 110.418 425.694 113.954 426.971C121.019 429.519 128.091 432.067 135.238 434.37C135.597 434.483 135.446 435.05 135.087 434.936C127.808 432.634 120.503 430.432 113.243 428.06C109.675 426.896 106.121 425.713 102.572 424.511C99.5521 423.492 95.6639 422.554 93.1913 420.453C93.0466 420.34 93.1598 420.107 93.3297 420.107Z" fill="black"/>
<path d="M324.775 398.779C325.87 398.124 305.535 305.945 298.715 257.839C291.895 209.739 313.381 214.357 344.292 255.48C377.405 299.528 436.364 418.767 415.942 507.058C409.329 535.647 204.491 495.595 204.491 495.595L232.093 377.865C232.086 377.871 323.077 399.792 324.775 398.779Z" fill="black" stroke="white" stroke-width="2" stroke-miterlimit="10"/>
<path d="M408.24 390.039C374.831 399.842 338.61 394.865 323.824 392.084C321.685 380.514 316.501 355.442 311.216 328.343C346.317 332.232 370.137 327.223 383.148 322.863C392.655 343.412 401.564 366.339 408.24 390.039Z" fill="black" stroke="white" stroke-width="2" stroke-miterlimit="10"/>
<path d="M231.299 483.49C243.757 442.499 250.627 397.527 252.382 389.775C252.464 389.41 251.867 389.316 251.797 389.693C250.47 397.388 237.043 447.929 230.651 483.402C230.582 483.811 231.18 483.886 231.299 483.49Z" fill="black"/>
<path d="M363.28 412.4C359.329 411.721 254.755 382.269 231.885 378.727C231.526 378.67 231.847 377.469 232.224 377.538C302.49 389.932 360.222 408.719 364.645 410.487C369.899 412.57 370.647 413.665 363.28 412.4Z" fill="black"/>
<path d="M323.762 399.716C323.838 399.515 316.866 364.219 315.633 362.017C314.369 359.733 311.625 354.662 310.505 352.296C308.24 347.527 306.277 342.651 304.195 337.819C304.019 337.422 304.623 337.108 304.799 337.51C307.051 342.185 309.706 346.665 312.38 351.088C313.714 353.259 315.042 355.454 316.376 357.606C316.476 357.751 309.939 323.115 309.027 317.037C308.951 316.591 309.442 316.465 309.581 316.842C311.544 322.964 325.253 392.342 327.128 400.024C327.128 400.031 325.832 400.006 323.762 399.716Z" fill="black"/>
<path d="M246.67 502.912C239.844 501.024 212.475 496.601 205.818 495.645C206.473 493.235 208.417 483.439 208.234 480.677C208.216 480.419 207.826 480.262 207.668 480.494C206.114 482.772 203.447 494.821 202.654 497.664C202.503 498.206 239.523 502.855 246.614 503.233C246.815 503.239 246.872 502.968 246.67 502.912Z" fill="black"/>
<path d="M237.51 229.394C237.51 229.394 240.259 256.479 262.714 260.701C285.169 264.917 327.135 235.421 327.135 235.421C327.135 235.421 310.279 212.74 279.834 212.671C250.546 212.595 237.51 229.394 237.51 229.394Z" fill="black" stroke="white" stroke-width="2" stroke-miterlimit="10"/>
<path d="M301.986 221.825C300.784 225.896 279.568 251.54 260.769 249.577C254.647 248.929 256.698 215.357 256.698 215.357L256.283 212.847L250.501 177.67L292.8 153.818L298.896 150.691C298.896 150.691 299.847 160.418 300.904 172.548C300.954 173.108 301.01 173.675 301.055 174.279C301.13 174.964 301.212 175.606 301.256 176.248C301.438 178.06 301.614 179.903 301.753 181.753C301.866 183.156 301.979 184.522 302.042 186C302.143 187.485 302.212 188.919 302.313 190.404C302.992 205.013 302.47 220.088 301.986 221.825Z" fill="white"/>
<path d="M300.904 173.543C289.371 200.622 266.646 210.626 256.29 213.847L250.508 178.67L292.807 154.819L298.903 151.692C298.897 151.685 299.841 161.412 300.904 173.543Z" fill="white" stroke="black" stroke-width="2.5" stroke-miterlimit="10"/>
<path d="M209.845 111.998C193.386 172.366 227.682 189.039 240.699 192.575C252.521 195.784 293.178 205.209 315.784 146.866C338.396 88.5236 315.532 61.7904 288.887 53.0198C262.248 44.2492 226.31 51.6293 209.845 111.998Z" fill="white" stroke="black" stroke-width="2.5" stroke-miterlimit="10"/>
<path d="M231.588 100.188C233.054 100.364 234.439 100.283 235.911 100.308C237.566 100.339 238.887 100.528 240.34 99.5905C241.12 99.0872 241.391 97.7533 240.976 96.948C240 95.0794 237.981 94.5383 235.986 94.4188C233.822 94.2929 232.123 94.7522 230.368 96.0168C228.657 97.25 229.651 99.9554 231.588 100.188Z" fill="black"/>
<path d="M274.61 106.216C273.214 105.731 272.006 105.046 270.678 104.423C269.174 103.718 267.91 103.315 267.016 101.831C266.538 101.038 266.884 99.7166 267.608 99.1818C269.3 97.9298 271.358 98.3324 273.201 99.1063C275.202 99.9431 276.529 101.101 277.549 103.013C278.53 104.863 276.448 106.851 274.61 106.216Z" fill="black"/>
<path d="M260.813 125.512C260.882 125.361 261.09 125.789 261.04 125.959C259.888 130.061 259.253 134.956 262.657 137.252C262.764 137.322 262.701 137.529 262.562 137.473C258.158 135.705 259.064 129.212 260.813 125.512Z" fill="black"/>
<path d="M265.576 122.108C272.352 123.247 269.571 136.718 263.298 135.661C257.114 134.622 259.895 121.152 265.576 122.108Z" fill="black"/>
<path d="M268.074 123.367C269.093 124.373 269.968 125.953 271.358 126.387C272.969 126.89 274.498 125.732 275.85 124.6C275.989 124.48 276.083 124.625 276.045 124.801C275.548 127.387 274.013 129.835 271.169 129.646C268.571 129.476 267.231 126.815 267.124 124.09C267.099 123.581 267.665 122.958 268.074 123.367Z" fill="black"/>
<path d="M235.961 117.283C235.961 117.119 235.59 117.409 235.558 117.585C234.791 121.775 233.205 126.45 229.141 127.016C229.015 127.035 228.983 127.243 229.128 127.255C233.859 127.601 235.904 121.379 235.961 117.283Z" fill="black"/>
<path d="M233.18 112.13C226.592 110.173 223.163 123.493 229.273 125.305C235.275 127.091 238.704 113.772 233.18 112.13Z" fill="black"/>
<path d="M230.179 112.293C228.946 112.728 227.574 113.741 226.297 113.501C224.812 113.225 224.108 111.507 223.535 109.884C223.478 109.714 223.34 109.802 223.29 109.978C222.566 112.507 222.723 115.376 225.045 116.49C227.159 117.509 229.361 115.748 230.619 113.369C230.846 112.929 230.676 112.117 230.179 112.293Z" fill="black"/>
<path d="M250.149 157.071C248.985 157.895 247.764 159.091 246.217 158.978C244.732 158.864 243.121 157.933 241.863 157.197C241.737 157.121 241.58 157.247 241.649 157.386C242.486 159.173 244.618 160.55 246.625 160.519C248.582 160.488 249.79 158.996 250.526 157.329C250.627 157.096 250.319 156.952 250.149 157.071Z" fill="black"/>
<path d="M236.037 138.221C236.037 138.221 233.822 144.249 233.174 147.181C233.118 147.458 233.797 147.741 234.779 148.018C234.823 148.043 234.848 148.068 234.892 148.049C239.894 149.987 245.5 149.339 249.57 145.803C249.835 145.557 249.526 145.174 249.224 145.3C244.738 147.294 240.309 147.093 235.697 146.161C235.666 145.306 239.843 135.963 239.384 135.831C237.811 135.34 234.414 135.742 232.394 135.881C236.647 123.191 242.907 111.287 246.953 98.5839C247.091 98.1309 246.456 97.8415 246.229 98.2253C238.793 110.242 233.571 124.738 228.839 137.731C228.235 139.348 234.753 138.467 236.037 138.221Z" fill="black"/>
<path d="M235.942 147.093C235.942 147.093 237.71 151.56 241.133 153.913C242.391 154.787 243.845 155.385 245.525 155.385C248.985 155.398 249.853 152.453 249.941 149.76C250.017 147.546 249.532 145.488 249.532 145.488C249.532 145.488 243.637 148.647 235.942 147.093Z" fill="black"/>
<path d="M244.852 150.849C246.235 150.248 247.861 150.024 249.418 150.196C249.339 151.354 249.097 152.475 248.572 153.326C248.003 154.248 247.082 154.891 245.526 154.885H245.524C244.113 154.885 242.866 154.43 241.752 153.723C242.345 152.422 243.464 151.452 244.852 150.849Z" fill="white" stroke="black"/>
<path d="M312.418 145.853C305.981 143.588 294.096 120.68 302.64 88.9072C302.64 88.9072 296.94 117.968 297.878 122.744C298.821 127.513 291.252 109.871 297.783 84.1507C297.783 84.1507 280.733 90.2977 267.722 90.2159C254.71 90.1404 247.374 87.9131 246.764 86.7932C246.154 85.6733 265.475 85.1762 271.855 81.0237C271.855 81.0237 235.552 86.7303 220.459 83.6222C218.71 83.2636 226.75 47.5521 253.848 39.1904C280.953 30.8288 312.499 57.2978 319.527 69.4785C319.527 69.4785 330.481 74.3797 338.05 94.8213C345.631 115.263 319.351 148.294 312.418 145.853Z" fill="black"/>
<path d="M303.075 147.181C303.075 147.181 319.999 130.407 327.851 136.781C335.697 143.154 320.541 169.176 309.606 171.127C298.677 173.077 296.67 162.998 296.67 162.998L303.075 147.181Z" fill="white" stroke="black" stroke-width="2.5" stroke-miterlimit="10"/>
<path d="M323.322 144.129C323.491 144.142 323.479 144.381 323.328 144.413C315.621 146.017 310.638 151.988 306.737 158.405C309.354 156.14 312.525 155.209 315.621 158.399C315.784 158.569 315.551 158.827 315.356 158.745C312.531 157.581 310.317 157.707 307.901 159.701C306.189 161.111 304.849 163.049 303.49 164.791C303.037 165.37 301.942 164.816 302.32 164.124C302.345 164.074 302.383 164.024 302.408 163.967C303.887 154.781 313.324 143.268 323.322 144.129Z" fill="black"/>
</svg>
